Patient4_TMGait_0pt6_01_left_25_EMG.mot
version=1
nRows=29
nColumns=33
inDegrees=no
endheader
time	1LAddLong	2LGlutMax	3LGlutMed	4LIliopsoas	5LSemiMemb	6LBicFemLong	7LRecFem	8LVastMed	9LVastLat	10LGasMed	11LTibAnt	12lTibPost	13LPeroneusLong	14LSol	15LExtDigLong	16LFlexDigLong	17RAddLong	18RGlutMax	19RGlutMed	20RIliopsoas	21RSemiMemb	22RBicFemLong	23RRecFem	24RVastMed	25RVastLat	26RGasMed	27RTibAnt	28RTibPost	29RPeroneusLong	30RSol	31RExtDigLong	32RFlexDigLong
31.695	-0.011292	0.28732	0.057831	0.005493	0.016785	-0.04303	0.020294	-0.005798	0.051422	-0.035706	0.009613	0	0.062561	-0.005341	-0.003967	-0.003204	0.040283	-0.51865	-0.081482	0.048218	-0.010681	0.097504	0.20218	-0.027466	0.057373	-0.003662	-0.094604	-0.000305	0.08606	0.073547	-0.001068	-0.003815
31.696	-0.002747	0.24002	0.017395	0.012665	0.018158	-0.058136	0.016479	-0.007782	0.05722	-0.039063	-0.002594	-0.004425	0.051422	-0.004272	-0.00351	0.005341	0.018921	-0.57495	-0.048676	-0.036469	-0.00412	0.09903	0.14465	-0.090332	0.07843	-0.001678	-0.11856	-0.006561	-0.09613	0.019836	0.000763	-0.010071
31.697	-0.005188	0.21393	0.000305	0.010681	0.030365	-0.053864	0.003815	-0.007629	0.04715	-0.026855	0.002594	-0.007172	0.044861	0.00946	-0.004425	-0.002747	0.006409	-0.54489	-0.28214	-0.054321	-0.005798	0.10071	-0.039825	0.02533	0.088043	-0.001678	-0.091858	-0.007477	-0.53436	-0.015564	-0.003662	-0.022736
31.698	-0.003662	0.23636	0.004425	0.005798	-0.024414	-0.024719	0.006256	-0.018616	0.045166	-0.041046	-0.002136	-0.006256	0.039063	0.022125	-0.003052	0.020752	-0.020294	-0.49408	0.072174	0.00885	0.010529	0.11124	-0.16266	0.24124	-0.040131	-0.006256	0.030365	-0.00351	-0.5513	0.1294	-0.000458	-0.012054
31.699	-0.002289	0.20096	-0.002289	0.01358	-0.03418	-0.044861	0.004578	-0.011749	0.04303	-0.025787	-0.002594	-0.003204	0.060425	-0.023041	0.009155	-0.002899	0.010071	-0.4599	0.016479	0.068512	0.001831	0.099792	-0.078278	0.14603	-0.083466	-0.002899	0.054321	-0.00885	0.10803	0.19165	-0.001068	-0.012817
31.7	0.00824	0.19592	-0.015869	0.009003	0.007782	-0.065155	0.023041	-0.014038	0.052338	-0.032349	-0.002441	-0.003204	0.066071	0.072174	0.012054	0.015411	0.011749	-0.56671	0.47195	0.12253	-0.004883	0.077362	0.073547	-0.16724	-0.10742	0.003815	-0.011444	-0.004578	0.12543	0.23193	-0.003357	-0.012817
31.701	0.017548	0.21713	-0.015259	0.007477	0.049438	-0.070343	0.00885	-0.018311	0.042877	-0.040894	-0.003662	-0.001068	0.050659	0.01236	0.00885	0.000916	0.013733	-0.48004	-0.005035	0.07782	-0.001373	0.079498	0.20844	-0.25742	-0.14694	-0.005951	0.059814	-0.005188	-0.39032	0.30853	0.000916	-0.014801
31.702	0.009155	0.19089	-0.015717	0.003204	0.020599	-0.075836	0.02182	-0.015411	0.044556	-0.052338	-0.000153	-0.007629	0.039673	-0.11124	-0.001984	0.011444	0.02243	-0.47669	-0.1152	0.002136	-0.003967	0.071411	0.25909	-0.28229	-0.13275	-0.008698	0.065765	-0.001373	-0.42877	0.13977	0.001984	-0.013428
31.703	0.00412	0.17639	-0.0383	0.00351	0.031433	-0.027771	0.027313	-0.013885	0.049896	-0.037079	0.001068	0.006409	0.027161	-0.081635	-0.005035	-0.01236	0.005951	-0.50247	0.15579	-0.06485	-0.005035	0.07782	-0.011597	-0.22354	-0.051727	-0.002441	0.12192	-0.001373	-0.54413	0.027161	0.000305	-0.005035
31.704	0.003204	0.15701	-0.09613	0.003204	0.03479	-0.005646	0.009766	-0.013428	0.045929	-0.038757	0.001373	-0.002136	0.022888	-0.082092	-0.031433	-0.01709	-0.007019	-0.45868	0.22583	-0.063629	0.017242	0.10544	0.046539	0.034485	0.062561	-0.007324	0.15747	-0.001221	-0.30029	0.050201	0.002441	-0.016785
31.705	0.007477	0.1329	-0.1355	0.004578	0.016327	0.001373	0.030365	-0.012665	0.048065	-0.030975	-0.008698	-0.001984	0.029144	-0.079193	-0.037231	-0.005493	-0.00061	-0.52765	-0.56168	-0.018311	0.023041	0.099945	0.026855	0.2507	0.040283	-0.007477	0.28473	-0.002136	0.15152	0.074921	-0.00351	-0.00885
31.706	0.004883	0.11276	-0.16296	0.006409	0.009766	0.006104	0.014496	-0.008545	0.046539	-0.028839	-0.003815	-0.003204	0.092163	-0.054016	-0.026245	0.010529	-0.010223	-0.47287	0.089417	-0.030365	0.018768	0.093994	-0.062256	0.22827	0.11978	-0.003815	0.32379	-0.002747	0.013275	0.040894	-0.002289	-0.007935
31.707	0.002136	0.13001	-0.098114	0.016937	-0.010986	0.023651	0.019073	-0.00473	0.048828	-0.03067	-0.00824	-0.007782	0.19348	-0.015564	0.001373	0.00824	0.000305	-0.4599	0.7518	-0.028992	0.016785	0.099945	-0.068817	0.007935	0.12619	-0.007019	0.25833	-0.001373	0.065613	-0.00824	-0.000458	-0.000458
31.708	0.001221	0.10696	0.006714	0.007019	-0.021057	-0.01297	0.020905	0.000153	0.041504	-0.034943	0.006409	-0.003052	0.1503	0.021667	0.006714	0.01236	0.005188	-0.51559	0.87021	0.013733	0.015106	0.10284	-0.21759	0.001068	-0.00473	0.002747	0.39063	-0.00061	0.10452	-0.024567	-0.003967	-0.00473
31.709	0.000153	0.080872	0.077209	-0.000153	0.05188	-0.068665	0.006256	0.000153	0.048065	-0.02121	0.012512	-0.005341	-0.05722	0.084076	0.00351	0.00885	0.006714	-0.4921	0.54138	-0.014191	0.006409	0.059814	-0.26215	0.014343	-0.12604	-0.00885	-0.030823	0.00061	-0.16968	-0.047913	-0.000916	-0.006409
31.71	0.002136	0.048676	0.014191	0.015564	0.10925	-0.076447	0.006866	-0.008545	0.049438	-0.029602	0	-0.00061	0.065308	0.059814	-0.013123	0.002899	0.02121	-0.45502	-0.066986	0.00946	0.00412	0.044708	-0.081329	-0.1683	-0.24841	-0.011139	-0.001373	-0.001526	-0.4216	-0.045166	-0.003662	-0.007019
31.711	0.012207	0.023346	-0.022125	0.01358	0.039063	-0.074768	0.014954	-0.007782	0.048523	-0.062408	-0.000458	0.002441	-0.019836	-0.029907	-0.021515	0.003662	0.005341	-0.51575	-0.2684	0.035858	0.010834	0.061035	-0.11032	-0.036316	-0.059357	0.002136	0.057983	-0.001068	-0.24445	-0.023651	-0.009613	-0.00946
31.712	0.014191	0.013275	-0.039825	0.00885	-0.040436	-0.051727	0.000763	-0.014343	0.042419	-0.062561	-0.011292	0.005646	-0.15915	-0.13077	-0.009308	-0.015106	-0.009308	-0.55252	-0.81711	0.077515	0.009155	0.06958	-0.28168	0.049744	0.15289	-0.010376	-0.2301	-0.001984	-0.17807	-0.072632	0	-0.010376
31.713	0.011597	0.05127	-0.028534	0.013123	-0.027161	-0.046844	-0.000763	-0.004425	0.035553	-0.038452	-0.011749	0.002747	-0.1181	-0.32776	0.007324	0.011749	-0.008392	-0.46707	-0.36362	-0.003815	0.014648	0.04715	-0.01297	-0.023499	0.12695	0.002594	-0.23148	-0.001984	-0.002289	-0.14343	-0.001526	-0.015869
31.714	0.018158	0.052185	0.003662	0.018005	0.031128	-0.036469	-0.001526	-0.005341	0.037537	-0.025482	-0.008087	0.008698	-0.044861	-0.53619	-0.002441	-0.002899	0.016785	-0.39749	0.40726	-0.066071	0.004272	0.019226	0.14374	-0.032349	0.065613	0.000763	-0.27268	-0.002899	0.011597	-0.092468	-0.002747	-0.013885
31.715	0.00946	0.024414	0.057068	0.003967	0.018616	-0.002747	0.005493	-0.006714	0.023804	-0.02121	-0.012512	0.009918	-0.029602	-0.48263	-0.005035	-0.009003	0.002441	-0.3833	1.0304	-0.096588	0.019379	0.055542	0.21194	-0.038757	0.004272	0.001984	-0.18601	-0.003662	-0.066681	-0.10315	-0.007324	-0.022583
31.716	0.016327	-0.047455	0.007172	0.019073	-0.009766	0.025482	-0.000763	0	0.030365	-0.014954	0.002136	0.014648	-0.027313	-0.31937	0.010681	-0.012054	-0.002136	-0.45609	0.64468	-0.18906	0.024414	0.065613	0.3009	0.058289	-0.018005	0.003662	-0.046387	-0.007782	-0.12894	-0.041962	-0.001221	-0.016479
31.717	0.003815	-0.058441	-0.086975	0.005493	-0.055084	0.02594	-0.012207	-0.001678	0.019073	-0.046997	-0.010529	0.002594	-0.015106	-0.11108	0.014648	-0.010529	0.009918	-0.53238	-0.22003	-0.16037	0.027771	0.049286	0.14511	0.029144	-0.1059	0.00061	0.030212	-0.002289	-0.032196	0.022583	-0.003052	-0.015869
31.718	0.003204	-0.013123	-0.081787	0.012512	-0.067291	0.00412	-0.020447	-0.01236	0.016022	-0.045776	-0.00351	-0.012665	-0.011902	-0.084381	0.025635	-0.021667	0.00061	-0.49393	-0.2739	0.000916	0.012512	0.054169	-0.45685	-0.19577	-0.089874	0.001221	0.042267	-0.001526	0.14114	0.022125	-0.001221	-0.014801
31.719	0.010223	-0.033417	0.043335	0.016174	0.018768	-0.002289	-0.021515	-0.006561	0.019836	-0.055847	0.001678	0.006714	-0.021973	-0.16129	0.013123	0.011749	0.007477	-0.45212	0.09552	0.15503	0.010071	0.040283	-0.84747	-0.35934	-0.019836	0.008392	-0.020447	-0.005798	0.16312	0.001984	-0.005035	-0.006714
31.72	0.008087	-0.084686	-0.014954	0.018158	0.059052	0.017548	-0.015106	-0.003967	0.015717	-0.054626	-0.008087	0.004883	-0.023499	-0.14221	0.009918	-0.023804	-0.009613	-0.42282	0.7045	0.15091	0.019836	0.050354	-0.87357	-0.38376	-0.057373	0.001373	0.006256	-0.007782	-0.059509	0.071259	0.000305	-0.014801
31.721	0.005341	-0.12009	-0.010986	-0.004578	0.041046	0.028992	-0.018921	0.003357	0.006256	-0.049438	-0.000763	0.015869	-0.029755	-0.061646	0.001526	-0.018921	0.001984	-0.45197	1.0141	0.074463	0.018311	0.071564	-0.64331	-0.20874	0.049744	-0.008545	0.037842	-0.002747	-0.009003	0.10635	-0.002594	-0.010834
31.722	-0.009918	-0.1088	0.036621	0.011749	0.014954	0.032196	-0.021667	0.001068	0.004883	-0.046997	0.003815	0.016479	-0.036774	-0.079956	-0.003967	0.00885	0.009308	-0.51239	-0.20309	0.27237	0.026398	0.060425	-0.54581	0.20203	0.13275	-0.013733	0.049133	-0.001831	0.016632	0.016785	-0.00473	-0.017548
31.723	-0.010529	-0.15457	-0.020905	0.004578	0.017395	0.032196	-0.029449	0.003052	0.020905	-0.033875	-0.005951	0.006561	-0.037384	-0.075226	-0.005188	-0.004425	-0.012665	-0.46783	-0.85022	0.16876	0.033722	0.050964	-0.112	0.36911	0.018463	-0.011292	0.014801	-0.001678	0.15411	-0.16785	0.000458	-0.018463
